<svg width="160.5" height="48" viewBox="0 0 856 256" fill="none" xmlns="http://www.w3.org/2000/svg" xmlns:xlink="http://www.w3.org/1999/xlink" version="1.1">
  <g transform="translate(0, 0)">
    <svg width="256" height="256" viewBox="0 0 256 256" fill="none" xmlns="http://www.w3.org/2000/svg"> <rect width="256" height="256" rx="60" fill="#242938"/> <g transform="translate(32, 30) scale(0.73135) scale(0.75)"> <path fill="#fff" d="M 51 1 H 26 C 1 1 1 1 1 26 V 101 C 1 126 1 126 26 126 H 38.5 V 163.5 C 38.5 188.834 38.481 188.834 63.5 188.834 H 126 V 213.5 C 126 238.5 126 238.5 151 238.5 H 201 C 226 238.5 226 238.5 226 213.5 V 188.5 H 288.5 V 226 H 276 C 251 226 251 226 251 251 V 276 H 101 V 251 C 101 226 101 226 76 226 H 26 C 1 226 1 226 1 251 V 326 C 1 351 1 351 26 351 H 76 C 101 351 101 351 101 326 V 301 H 251 V 326 C 251 351 251 351 276 351 H 326 C 351 351 351 351 351 326 V 251 C 351 226 351 226 326 226 H 313.5 V 188.5 C 313.5 163.5 313.5 163.5 288.5 163.5 H 226 V 138.5 C 226 113.5 226 113.5 201 113.5 H 151 C 126 113.5 126 113.5 126 138.5 V 163.5 H 63.5 V 126 H 76 C 101 126 101 126 101 101 V 76 H 251 V 101 C 251 126 251 126 276 126 H 326 C 351 126 351 126 351 101 V 26 C 351 1 351 1 326 1 H 276 C 251 1 251 1 251 26 V 51 H 101 V 26 C 101 1 101 1 76 1 Z M 76 26 V 38.5 H 26 V 26 Z M 326 26 V 38.5 H 276 V 26 Z M 76 63.5 V 101 H 26 V 63.5 Z M 326 63.5 V 101 H 276 V 63.5 Z M 201 138.5 V 151 H 151 V 138.5 Z M 201 176 V 213.5 H 151 V 176 Z M 76 251 V 263.5 H 26 V 251 Z M 326 251 V 263.5 H 276 V 251 Z M 76 288.5 V 326 H 26 V 288.5 Z M 326 288.5 V 326 H 276 V 288.5 Z" fill-rule="evenodd"/> </g> </svg>
  </g>

  <g transform="translate(300, 0)">
    <svg width="256" height="256" viewBox="0 0 256 256" fill="none" xmlns="http://www.w3.org/2000/svg"> <rect width="256" height="256" rx="60" fill="#242938"/> <path fill="#fff" d="M117.234 12.2s-4.731 25.608-4.803 25.918c-.105.45-.457.624-1.793.882-3.207.617-7.011 1.638-11.186 2.998-3.668 1.197-4.25 1.323-4.514.974-1.254-1.666-17.282-19.887-17.493-19.887-.216 0-16.54 9.383-16.89 9.708 7.67 21.289 8.993 24.974 8.993 25.121s-2.076 2.317-4.614 4.821-5.164 5.209-5.836 6.006l-1.223 1.45c-21.654-7.609-25.553-8.922-25.751-8.715-.274.288-9.242 15.831-9.456 16.388l20.514 17.983-.774 2.184c-.963 2.723-2.432 8.321-3.009 11.475-.24 1.314-.455 2.407-.477 2.43l-26.722 4.88v19.534c20.473 3.821 26.492 5.01 26.586 5.105.091.097.431 1.49.754 3.096.624 3.105 2.603 10.195 3.328 11.919.358.855.372 1.089.083 1.357-14.223 11.99-20.043 16.974-20.246 17.255-.29.406 9.072 17.102 9.6 17.118l25.874-8.842 1.084 1.305c1.217 1.465 8.205 8.494 9.975 10.035l1.15 1-9.257 25.348c.115.11 14.206 8.538 15.602 9.333l1.478.84 1.035-1.252c2.59-3.13 16.616-19.439 16.718-19.439.063 0 1.881.585 4.04 1.3 3.532 1.17 7.249 2.122 11.531 2.95l1.5.289.297 1.647 4.546 25.142h19.815a1905 1905 0 0 1 4.725-26.73c.009-.028 1.748-.426 3.863-.885s5.937-1.531 8.492-2.381 4.652-1.527 4.657-1.505c.1.344 17.24 20.416 17.532 20.53.243.091 15.244-8.596 17.038-9.867l-9.225-25.5c.002-.14 1.556-1.73 3.455-3.53s4.486-4.46 5.75-5.908 2.441-2.634 2.62-2.634c25.393 8.77 25.633 8.847 25.866 8.595.117-.128 2.157-3.696 4.535-7.93s4.489-7.957 4.691-8.272l-20.68-18.433c2.421-7.027 3.308-10.433 3.717-12.423l.747-3.618 26.647-5.015v-19.485c-28.173-5.19-26.719-4.786-26.735-5.162-.588-3.443-1.95-8.978-2.984-12.341-.594-1.928-1.08-3.555-1.08-3.616 15.499-13.189 20.462-17.538 20.349-17.834-.071-.184-1.133-2.052-2.36-4.15a1308 1308 0 0 1-4.704-8.13c-1.361-2.375-2.563-4.315-2.672-4.315l-25.492 8.891-1.09-1.326c-.598-.73-3.257-3.477-5.91-6.106l-4.823-4.78s9.156-25.19 9.117-25.217c-.65-.454-16.623-9.683-17.057-9.774-15.57 17.922-17.555 20.158-17.66 20.2s-1.912-.509-4.012-1.224c-3.418-1.16-8.65-2.55-11.896-3.154l-1.17-.218-4.985-26.41zm21.591 46.442c55.543 9.538 76.98 77.175 37.08 116.988-30.976 30.907-80.823 25.344-104.823-11.7-27.725-42.792-1.072-99.512 49.707-105.782 3.586-.44 14.292-.148 18.036.493M124.871 71.42c-12.375.831-21.891 4.509-24.614 9.512l-.731 1.345-.054 21.048-.054 21.05.62 1.26c2.413 4.9 12.808 9.041 24.163 9.624a328 328 0 0 1 4.686.274l1.86.129-1.493-1.32c-.819-.726-1.936-1.903-2.482-2.62l-.99-1.3-2.563-.18c-9.554-.67-17.309-3.26-18.531-6.186-.231-.553-.36-1.947-.36-3.91v-3.051l1.956 1.055c3.186 1.72 7.51 2.991 12.913 3.798 2.99.447 2.644.656 2.343-1.423-.54-3.724-.44-3.452-1.259-3.452-4.501 0-12.797-2.732-14.89-4.904l-.93-.965-.088-3.466c-.049-1.907.012-3.423.133-3.37.12.055 1.057.529 2.08 1.054 3.063 1.575 7.03 2.765 11.814 3.541 3.758.608 3.882.591 4.264-.585.177-.547.604-1.559.95-2.248s.627-1.306.627-1.373-.806-.198-1.792-.294c-9.37-.909-16.317-3.26-17.738-6.005-.27-.523-.382-1.667-.382-3.899V91.4l2.588 1.28c7.267 3.59 22.446 5.508 26.045 3.29 4.673-2.88 11.372-3.952 16.634-2.662l1.593.39 2.165-1.056c1.19-.582 2.229-1.057 2.31-1.057s.129.86.109 1.91c-.034 1.813.003 1.935.723 2.455a280 280 0 0 1 2.44 1.797l1.679 1.251v-16.6l-.685-1.375c-3.254-6.527-18.54-10.716-35.059-9.603m15.566 5.44c12.503 1.657 18.21 5.835 13.624 9.974-8.058 7.27-44.59 6.413-49.203-1.154-2.675-4.387 4.986-8.026 19.648-9.332 2.615-.234 12.773.094 15.93.512m1.263 20.823c-18.666 3.411-22.165 28.424-5.112 36.546 14.588 6.948 30.723-6.532 26.691-22.3-2.398-9.376-12.334-15.935-21.58-14.246m5.817 3.323c14.085 2.664 17.915 21.307 5.99 29.16-8.811 5.802-20.7 1.658-23.98-8.359-3.754-11.456 6.249-23.02 17.99-20.8m-.29 6.661c-.85.85-.486 1.496 2.566 4.556l2.961 3.009h-10.129c-11.092-.018-11.214 0-11.214 1.577s.123 1.591 11.203 1.591h10.14l-2.971 3.013c-1.635 1.657-2.972 3.218-2.972 3.47 0 .797.53 1.482 1.147 1.482.86 0 9.473-8.685 9.473-9.552 0-.74-8.62-9.564-9.342-9.564-.245 0-.632.188-.861.418m-59.822 35.276c-13.755 2.598-14.18 22.552-.552 25.765 3.212.756 7.697.38 10.64-.891l1.261-.546v-5.6c-7.645 4.825-14.396 2.13-15.03-4.907-.7-7.767 5.634-11.613 15.03-6.826l.018-5.634c-5.32-1.618-8.947-1.818-11.367-1.36m25.67-.116c-15.231 2.401-13.489 26.23 1.922 26.28 1.224.003 1.267.033 3.186 2.238l1.944 2.236 6.814.042-5.146-5.63 1.296-.74c7.446-4.252 7.663-18.047.354-22.545-2.722-1.674-6.89-2.43-10.37-1.882m54.045.03c-4.627.67-6.998 3.263-7.023 7.683-.027 4.405 1.857 6.13 8.279 7.578 4.645 1.049 5.25 1.437 5.25 3.373 0 3.082-5.075 3.745-13.543-.07v5.788c10.384 3.35 18.205 1.779 19.662-3.288 1.743-6.061-.708-9.22-8.452-10.895-4.846-1.047-5.784-1.758-5.058-3.836.786-2.258 6.897-2.377 12.17.285v-5.522c-5.049-1.267-8.452-1.507-11.285-1.096m-33.32 25.722h6.372v-9.557c4.489 0 5.25.724 9.405 9.558h7.056s-1.027-2.331-2.284-4.848c-2.327-4.667-3.087-5.77-4.472-6.493l-.782-.408c5.269-2.703 5.864-9.176 2.04-12.054-1.835-1.38-3.84-1.685-17.335-1.685Zm-14.995-20.32c4.453 2.61 4.355 12.76-.148 15.275-5.726 3.196-11.148-3.712-8.888-11.323 1.259-4.235 5.436-6.063 9.036-3.951m21.493-.804c3.76 0 7.84 0 7.84 3.398s-4.08 3.399-7.84 3.399Z"/> </svg>
  </g>

  <g transform="translate(600, 0)">
    <svg width="256" height="256" viewBox="0 0 256 256" fill="none" xmlns="http://www.w3.org/2000/svg"> <rect width="256" height="256" rx="60" fill="#242938"/> <path fill="#fff" d="M119.047 12.994c-2.878 1.456-3.792 3.303-5.91 11.932l-1.892 7.7-3.9.796c-2.144.437-6.104 1.497-8.8 2.355l-4.9 1.56-5.9-5.876c-8.822-8.788-9.92-8.977-19.368-3.35-7.335 4.37-7.76 6.023-4.487 17.503l2.07 7.26-6.633 6.633-6.633 6.633-7.26-2.07c-11.22-3.198-13.07-2.806-16.933 3.588-6.338 10.494-6.25 11.188 2.508 19.993l6.043 6.075-1.303 4.05c-.717 2.228-1.776 6.215-2.353 8.861l-1.05 4.814-7.65 1.884c-12.191 3.006-12.6 3.457-12.6 13.916 0 10.44.356 10.827 12.893 13.964l7.357 1.842 1.02 4.664c.56 2.566 1.636 6.572 2.39 8.902l1.372 4.238-5.937 5.807c-8.125 7.95-8.543 9.19-5.244 15.577 5.766 11.169 7.086 11.722 19.497 8.184l7.268-2.073 6.631 6.61 6.632 6.609-2.077 7.286c-3.204 11.235-2.811 13.11 3.534 16.918 10.595 6.359 11.259 6.272 20.264-2.673l5.85-5.81 4.95 1.51c2.723.828 6.702 1.854 8.844 2.28l3.895.771 1.873 7.476c3.166 12.655 3.423 12.893 13.963 12.893s10.797-.24 13.962-12.883l1.869-7.468 3.77-.74c2.073-.408 6.054-1.433 8.846-2.281l5.078-1.54 6.3 6.196c8.797 8.65 9.369 8.713 19.876 2.166 6.32-3.938 6.666-5.612 3.475-16.801l-2.072-7.271 6.625-6.624 6.624-6.624 7.272 2.072c12.413 3.54 13.732 2.986 19.498-8.183 3.278-6.348 2.955-7.332-5.048-15.395l-6.03-6.074 1.535-5.031c.845-2.766 1.889-6.753 2.322-8.858l.788-3.827 7.668-1.882c12.191-2.994 12.617-3.464 12.617-13.927 0-10.46-.409-10.91-12.6-13.916l-7.65-1.885-1.02-4.667c-.56-2.567-1.633-6.563-2.383-8.881l-1.364-4.213 5.924-5.832c8.923-8.785 9.042-9.678 2.688-20.199-3.866-6.399-5.748-6.796-16.93-3.574l-7.233 2.085-6.649-6.647-6.647-6.648 2.07-7.26c3.416-11.985 3.003-13.197-6.303-18.5-7.92-4.513-8.732-4.33-17.032 3.847l-6.321 6.226-4.95-1.5c-2.722-.824-6.703-1.846-8.845-2.27l-3.894-.772-1.872-7.476c-3.126-12.492-3.47-12.823-13.48-13.028-6.01-.123-6.723-.051-8.508.852m14.389 45.433c46.179 4.718 74.682 51.174 57.793 94.196-2.452 6.246-9.013 17.343-10.27 17.37-.187.005-.338-5.958-.338-13.25 0-15.876-.192-16.771-4.475-20.991-3.944-3.886-6.023-4.512-15.928-4.795l-8.027-.23 11.704-11.75c17.602-17.672 17.613-17.985 1.268-34.298-10.867-10.844-11.517-11.262-16.912-10.876-2.077.148-3.617.535-4.594 1.155-1.947 1.233-51.628 50.36-54.002 53.4l-1.845 2.362-4.842.276c-12.872.738-17.487 6.43-17.57 21.68l-.03 5.4-1.136-2.475c-21.924-47.736 17.076-102.5 69.204-97.173m22.34 27.822c15.268 14.19 15.486 14.628 9.993 20.079l-3.157 3.132-10.806-10.793-10.808-10.791 3.33-3.262c4.68-4.587 4.767-4.574 11.448 1.635m-16 11.18 3.946 3.928-15.75 15.774c-9.317 9.33-15.773 16.136-15.803 16.66-.167 2.847 1.326 4.71 3.774 4.71 1.27 0 3.132-1.707 17.303-15.858l15.88-15.856 4.047 4.046 4.047 4.048-19.35 19.344-19.347 19.345-10.802-10.794-10.802-10.795 19.237-19.24c10.58-10.582 19.334-19.24 19.454-19.24s1.994 1.768 4.165 3.929m-54.104 41.974c0 .248-1.029 5.058-2.286 10.686-3.065 13.717-2.77 16.43 2.016 18.603 2.579 1.17 2.289 1.208 18.158-2.297 18.114-4 15.512-2.562 28.946-16.005l11.434-11.44h11.974c17.989 0 16.789-1.571 16.96 22.215l.128 17.65-3.015 2.416c-27.566 22.09-67.723 19.49-92.302-5.977l-4.163-4.313v-13.454c0-15.087.005-15.115 3.564-17.514 1.629-1.098 8.586-1.56 8.586-.571m16.818 8.942 8.485 8.493-3.54.779c-1.946.43-6.949 1.543-11.117 2.476-7.434 1.662-7.575 1.676-7.388.739 1.16-5.785 4.67-20.98 4.847-20.98.126 0 4.047 3.821 8.713 8.493"/> </svg>
  </g>
</svg>
