<svg width="216.75" height="48" viewBox="0 0 1156 256" fill="none" xmlns="http://www.w3.org/2000/svg" xmlns:xlink="http://www.w3.org/1999/xlink" version="1.1">
  <g transform="translate(0, 0)">
    <svg xmlns="http://www.w3.org/2000/svg" width="256" height="256" fill="none" viewBox="0 0 256 256"><rect width="256" height="256" fill="#242938" rx="60"/><path fill="#81CD39" d="M119.878 31.1164C124.797 28.3008 131.203 28.2883 136.117 31.1164C160.839 45.0855 185.569 59.0332 210.287 73.0108C214.937 75.6296 218.046 80.8038 217.999 86.1608V170.206C218.034 175.785 214.617 181.083 209.712 183.642C185.071 197.535 160.442 211.444 135.805 225.337C130.786 228.207 124.251 227.986 119.387 224.88C112 220.598 104.6 216.336 97.2121 212.058C95.7022 211.158 94.0004 210.442 92.9345 208.978C93.8766 207.708 95.5618 207.55 96.9309 206.995C100.014 206.014 102.847 204.44 105.679 202.913C106.396 202.423 107.27 202.611 107.957 203.049C114.274 206.671 120.536 210.399 126.874 213.986C128.226 214.767 129.595 213.73 130.751 213.086C154.931 199.419 179.141 185.805 203.318 172.134C204.214 171.703 204.709 170.752 204.636 169.771C204.653 142.046 204.64 114.317 204.645 86.5918C204.747 85.4785 204.103 84.455 203.096 83.999C178.541 70.1702 153.997 56.3205 129.446 42.4882C128.575 41.8893 127.426 41.8878 126.554 42.4837C102.002 56.3205 77.4638 70.1832 52.9124 84.011C51.9092 84.4675 51.236 85.4745 51.3554 86.5918C51.3596 114.317 51.3554 142.046 51.3554 169.775C51.2682 170.756 51.801 171.687 52.6906 172.109C59.2422 175.824 65.8024 179.513 72.3582 183.216C76.0516 185.203 80.5863 186.385 84.6555 184.862C88.2463 183.574 90.7633 179.909 90.6948 176.097C90.7288 148.534 90.6778 120.967 90.7203 93.4078C90.6309 92.1841 91.7912 91.1731 92.981 91.2885C96.1292 91.267 99.281 91.2461 102.429 91.297C103.743 91.267 104.647 92.5847 104.485 93.8174C104.472 121.555 104.519 149.293 104.464 177.03C104.472 184.423 101.435 192.467 94.5973 196.084C86.1737 200.447 75.7619 199.522 67.4399 195.338C60.2355 191.742 53.3603 187.498 46.2838 183.646C41.3661 181.101 37.966 175.782 38.0006 170.207V86.1608C37.949 80.6929 41.1825 75.4248 45.9764 72.8445C70.6133 58.9408 95.2461 45.0261 119.878 31.1164Z"/><path fill="#81CD39" d="M141.372 89.3351C152.117 88.6433 163.62 88.9255 173.289 94.2185C180.776 98.2754 184.926 106.789 185.058 115.106C184.849 116.227 183.676 116.846 182.605 116.769C179.488 116.765 176.369 116.812 173.252 116.748C171.929 116.799 171.161 115.58 170.995 114.411C170.099 110.431 167.928 106.49 164.183 104.57C158.433 101.692 151.767 101.837 145.497 101.897C140.92 102.139 135.998 102.536 132.12 105.227C129.143 107.266 128.239 111.382 129.301 114.697C130.303 117.077 133.05 117.845 135.299 118.553C148.248 121.94 161.97 121.602 174.672 126.059C179.931 127.876 185.075 131.409 186.875 136.915C189.23 144.295 188.198 153.115 182.947 159.039C178.689 163.914 172.488 166.568 166.303 168.009C158.075 169.844 149.536 169.891 141.18 169.076C133.323 168.18 125.146 166.116 119.081 160.763C113.894 156.259 111.361 149.241 111.612 142.469C111.672 141.325 112.811 140.527 113.907 140.621C117.046 140.596 120.186 140.587 123.325 140.626C124.58 140.536 125.509 141.62 125.574 142.802C126.152 146.593 127.577 150.573 130.884 152.82C137.264 156.937 145.271 156.655 152.577 156.77C158.63 156.502 165.425 156.421 170.364 152.42C172.97 150.138 173.742 146.32 173.038 143.036C172.275 140.263 169.374 138.971 166.883 138.126C154.1 134.083 140.224 135.55 127.565 130.977C122.425 129.161 117.455 125.727 115.481 120.447C112.726 112.974 113.988 103.73 119.789 98.0061C125.445 92.312 133.609 90.1192 141.372 89.3346V89.3351"/></svg>
  </g>

  <g transform="translate(300, 0)">
    <svg xmlns="http://www.w3.org/2000/svg" width="256" height="256" fill="none" viewBox="0 0 256 256"><rect width="256" height="256" fill="#242938" rx="60"/><path fill="#E0234E" d="M146.728 18C145.172 18 143.727 18.3422 142.393 18.7985C145.228 20.7379 146.784 23.3046 147.562 26.2136C147.618 26.6129 147.729 26.8981 147.784 27.2973C147.84 27.6396 147.896 27.9818 147.896 28.3241C148.118 33.3435 146.617 33.9709 145.561 36.9369C143.949 40.7586 144.394 44.8654 146.339 48.1736C146.506 48.5729 146.728 49.0292 147.006 49.4285C144.894 34.9976 156.622 32.8301 158.79 28.3241C158.956 24.3884 155.788 21.7646 153.287 19.9393C150.897 18.4563 148.729 18 146.728 18V18ZM164.404 21.2512C164.181 22.5631 164.348 22.2209 164.293 22.9054C164.237 23.3617 164.237 23.9321 164.181 24.3884C164.07 24.8447 163.959 25.301 163.792 25.7573C163.681 26.2136 163.514 26.6699 163.348 27.1262C163.125 27.5826 162.959 27.9818 162.736 28.4381C162.57 28.6664 162.458 28.8944 162.292 29.1226C162.181 29.2937 162.069 29.4648 161.958 29.636C161.68 30.0353 161.402 30.4345 161.124 30.7767C160.791 31.119 160.513 31.5182 160.124 31.8035C160.124 31.8606 160.124 31.8606 160.124 31.8606C159.79 32.1458 159.457 32.488 159.068 32.7732C157.901 33.6858 156.567 34.3703 155.344 35.2259C154.955 35.511 154.566 35.7392 154.232 36.0814C153.843 36.3666 153.51 36.6518 153.176 36.9941C152.787 37.3363 152.509 37.6785 152.176 38.0778C151.898 38.4201 151.564 38.8193 151.342 39.2186C151.064 39.6179 150.786 40.0171 150.564 40.4164C150.341 40.8727 150.175 41.272 149.952 41.7283C149.786 42.1846 149.619 42.5839 149.508 43.0402C149.341 43.5535 149.23 44.0099 149.119 44.4662C149.063 44.6944 149.063 44.9795 149.007 45.2077C148.952 45.4359 148.952 45.664 148.896 45.8922C148.896 46.3485 148.841 46.8618 148.841 47.3181C148.841 47.6604 148.841 48.0026 148.896 48.3448C148.896 48.8011 148.952 49.2574 149.063 49.7708C149.119 50.2271 149.23 50.6834 149.341 51.1397C149.508 51.596 149.619 52.0524 149.786 52.5087C149.897 52.7939 150.064 53.0791 150.175 53.3072L137.391 48.2307C135.223 47.6033 133.111 47.0329 130.943 46.5196C129.776 46.2344 128.609 45.9492 127.441 45.664C124.106 44.9795 120.716 44.4662 117.325 44.124C117.214 44.124 117.159 44.0668 117.047 44.0668C113.712 43.7246 110.433 43.5535 107.098 43.5535C104.652 43.5535 102.207 43.6675 99.8168 43.8387C96.4262 44.0669 93.0357 44.5231 89.6451 45.0935C88.8114 45.2075 87.9776 45.3787 87.1439 45.5499C85.4208 45.8921 83.7533 46.2914 82.1414 46.6906C81.3077 46.9189 80.474 47.1469 79.6402 47.3751C78.8065 47.7173 78.0283 48.1166 77.2501 48.4588C76.6387 48.744 76.0273 49.0292 75.4159 49.3144C75.3048 49.3715 75.1935 49.3715 75.138 49.4284C74.5822 49.7136 74.0819 49.9417 73.5817 50.227C73.415 50.2841 73.3038 50.3409 73.1926 50.3981C72.5812 50.6833 71.9698 51.0255 71.4696 51.3107C71.0805 51.4818 70.6914 51.71 70.3579 51.8811C70.1912 51.9951 69.9688 52.1093 69.8577 52.1663C69.3574 52.4515 68.8572 52.7367 68.4125 53.0219C67.9123 53.3071 67.4676 53.5922 67.0785 53.8774C66.6894 54.1627 66.3004 54.3908 65.9669 54.676C65.9112 54.7331 65.8558 54.7331 65.8001 54.79C65.4666 55.0182 65.0775 55.3033 64.744 55.5885C64.744 55.5885 64.6884 55.6456 64.633 55.7025C64.3551 55.9308 64.0771 56.1588 63.7992 56.387C63.6881 56.4441 63.5768 56.5581 63.4657 56.6152C63.1878 56.8435 62.9099 57.1286 62.632 57.3567C62.5763 57.4707 62.4652 57.5279 62.4096 57.585C62.0761 57.9272 61.7426 58.2124 61.4091 58.5547C61.3534 58.5547 61.3534 58.6118 61.298 58.6686C60.9645 58.9538 60.631 59.2961 60.2975 59.6383C60.2418 59.6954 60.2418 59.7523 60.1864 59.7523C59.9085 60.0375 59.6306 60.3227 59.3527 60.6649C59.2416 60.7789 59.0748 60.8932 58.9636 61.0071C58.6857 61.3494 58.3522 61.6916 58.0187 62.0339C57.963 62.1478 57.852 62.205 57.7963 62.319C57.3516 62.7754 56.9625 63.2317 56.5179 63.688C56.4622 63.7451 56.4068 63.802 56.3511 63.8591C55.4618 64.8288 54.5169 65.7984 53.5164 66.654C52.5159 67.5666 51.4599 68.4222 50.4038 69.1637C49.2921 69.9623 48.236 70.6467 47.0688 71.3312C45.9571 71.9586 44.7899 72.529 43.5671 73.0424C42.3998 73.5557 41.177 74.0121 39.9542 74.4113C37.6197 74.9247 35.2297 75.8943 33.1731 76.0654C32.7284 76.0654 32.2282 76.1794 31.7835 76.2365C31.2833 76.3505 30.8386 76.4648 30.394 76.5788C29.9493 76.7499 29.5046 76.921 29.06 77.0921C28.6153 77.2633 28.1707 77.4914 27.726 77.7196C27.3369 78.0048 26.8923 78.2329 26.5032 78.5181C26.1141 78.8033 25.725 79.1455 25.3915 79.4878C25.0025 79.773 24.6134 80.1723 24.2799 80.5145C23.9464 80.9138 23.6129 81.256 23.335 81.6553C23.0571 82.1116 22.7236 82.5109 22.5012 82.9672C22.2233 83.3665 21.9454 83.8227 21.7231 84.279C21.5006 84.7924 21.2784 85.2487 21.1116 85.7621C20.9449 86.2184 20.7781 86.7317 20.6114 87.2451C20.5003 87.7014 20.389 88.1577 20.3335 88.614C20.3335 88.6712 20.2778 88.728 20.2778 88.7851C20.1667 89.2985 20.1667 89.983 20.1111 90.3252C20.0554 90.7245 20 91.0667 20 91.466C20 91.6943 20 91.9793 20.0557 92.2075C20.1113 92.6068 20.1667 92.949 20.2781 93.2913C20.3892 93.6335 20.5005 93.9757 20.6671 94.318C20.6671 94.3751 20.6671 94.3751 20.6671 94.3751C20.8339 94.7173 21.0562 95.0595 21.2786 95.4018C21.501 95.744 21.7232 96.0862 22.0011 96.4285C22.2791 96.7137 22.6126 97.0559 22.9461 97.3411C23.2795 97.6833 23.6131 97.9685 24.0021 98.2537C25.3361 99.4515 25.6696 99.8508 27.3927 100.763C27.6706 100.935 27.9485 101.049 28.282 101.22C28.3377 101.22 28.3931 101.277 28.4488 101.277C28.4488 101.391 28.4488 101.448 28.5044 101.562C28.5601 102.018 28.6712 102.475 28.7823 102.931C28.8934 103.444 29.0603 103.901 29.227 104.3C29.3938 104.642 29.5049 104.984 29.6717 105.327C29.7274 105.441 29.7828 105.555 29.8384 105.612C30.0609 106.068 30.2831 106.467 30.5054 106.867C30.7833 107.266 31.0612 107.665 31.3392 108.065C31.6171 108.407 31.9506 108.806 32.2841 109.148C32.6176 109.491 32.9511 109.776 33.3401 110.118C33.3401 110.118 33.3958 110.175 33.4512 110.175C33.7847 110.46 34.1182 110.746 34.4517 110.974C34.8408 111.259 35.2299 111.487 35.6745 111.715C36.0636 111.943 36.5083 112.171 36.9529 112.343C37.2864 112.514 37.6755 112.628 38.0646 112.742C38.1203 112.799 38.1757 112.799 38.287 112.856C38.5094 112.913 38.7872 112.97 39.0096 113.027C38.8428 116.107 38.7872 119.016 39.232 120.043C39.7322 121.184 42.1779 117.704 44.6235 113.711C44.29 117.647 44.0677 122.267 44.6235 123.636C45.2349 125.062 48.5699 120.613 51.4602 115.708C90.8684 106.353 126.83 134.303 130.61 173.774C129.887 167.613 122.495 164.191 119.104 165.047C117.437 169.267 114.602 174.686 110.044 178.051C110.434 174.287 110.267 170.408 109.489 166.644C108.266 171.891 105.876 176.797 102.596 181.017C97.316 181.417 92.0356 178.793 89.2565 174.857C89.034 174.686 88.9786 174.344 88.8118 174.116C88.6451 173.716 88.4783 173.317 88.3671 172.918C88.2004 172.519 88.0892 172.119 88.0336 171.72C87.978 171.321 87.978 170.922 87.978 170.465C87.978 170.18 87.978 169.895 87.978 169.61C88.0336 169.21 88.1447 168.811 88.2559 168.412C88.3669 168.013 88.4783 167.613 88.645 167.214C88.8674 166.815 89.034 166.416 89.312 166.016C90.2569 163.278 90.2569 161.054 88.5338 159.742C88.2003 159.514 87.8668 159.343 87.4777 159.172C87.2553 159.114 86.9775 159 86.7551 158.943C86.5884 158.886 86.4772 158.829 86.3105 158.772C85.9214 158.658 85.5323 158.544 85.1432 158.487C84.7542 158.373 84.3651 158.316 83.976 158.316C83.5869 158.259 83.1423 158.202 82.7532 158.202C82.4753 158.202 82.1973 158.259 81.9194 158.259C81.4748 158.259 81.0857 158.316 80.6966 158.43C80.3075 158.487 79.9185 158.544 79.5294 158.658C79.1403 158.772 78.7512 158.887 78.3621 159.058C77.9731 159.229 77.6396 159.4 77.2505 159.571C76.917 159.742 76.5835 159.97 76.1944 160.141C63.2436 168.811 70.9696 189.117 79.8073 194.992C76.4723 195.62 73.0818 196.361 72.1369 197.103C72.0812 197.16 72.0258 197.217 72.0258 197.217C74.4159 198.7 76.9171 199.955 79.5295 201.038C83.0868 202.236 86.8664 203.32 88.5339 203.776V203.833C93.1472 204.803 97.8162 205.145 102.541 204.86C127.164 203.092 147.34 183.87 151.009 158.544C151.12 159.058 151.231 159.514 151.342 160.027C151.509 161.054 151.731 162.138 151.843 163.221C151.843 163.221 151.843 163.221 151.843 163.279C151.954 163.792 152.009 164.305 152.065 164.762C152.065 164.876 152.065 164.933 152.065 164.99C152.121 165.503 152.176 166.017 152.176 166.473C152.232 167.1 152.287 167.728 152.287 168.355C152.287 168.64 152.287 168.926 152.287 169.268C152.287 169.553 152.343 169.895 152.343 170.18C152.343 170.523 152.287 170.865 152.287 171.207C152.287 171.492 152.287 171.778 152.287 172.006C152.287 172.405 152.232 172.747 152.232 173.147C152.232 173.375 152.232 173.603 152.176 173.888C152.176 174.287 152.12 174.687 152.12 175.143C152.064 175.314 152.064 175.485 152.064 175.656C152.009 176.113 151.953 176.512 151.898 176.968C151.898 177.139 151.898 177.31 151.842 177.482C151.786 178.052 151.675 178.565 151.62 179.136V179.193V179.25C151.509 179.763 151.397 180.334 151.286 180.847C151.286 180.904 151.286 180.961 151.286 181.018C151.175 181.531 151.064 182.045 150.953 182.558C150.953 182.615 150.897 182.729 150.897 182.786C150.786 183.3 150.675 183.813 150.508 184.327C150.508 184.384 150.508 184.44 150.508 184.498C150.341 185.068 150.174 185.581 150.063 186.095C150.008 186.152 150.008 186.209 150.008 186.209C149.841 186.779 149.674 187.349 149.507 187.92C149.285 188.49 149.118 189.004 148.896 189.574C148.674 190.144 148.507 190.715 148.285 191.228C148.062 191.799 147.84 192.312 147.618 192.882H147.562C147.339 193.396 147.117 193.966 146.839 194.479C146.783 194.65 146.728 194.765 146.672 194.879C146.617 194.936 146.617 194.993 146.561 195.05C142.948 202.522 137.613 209.081 130.943 214.215C130.498 214.5 130.053 214.842 129.609 215.185C129.498 215.298 129.331 215.356 129.22 215.47C128.83 215.755 128.441 216.04 127.997 216.325L128.163 216.668H128.219C128.997 216.554 129.775 216.439 130.554 216.325H130.609C132.054 216.097 133.5 215.812 134.945 215.527C135.334 215.47 135.778 215.356 136.168 215.242C136.445 215.184 136.668 215.128 136.946 215.07C137.335 215.013 137.724 214.899 138.113 214.842C138.446 214.728 138.78 214.671 139.113 214.557C144.672 213.188 150.063 211.306 155.232 209.081C146.395 221.459 134.556 231.441 120.716 238C127.108 237.544 133.5 236.46 139.669 234.635C162.069 227.847 180.912 212.389 192.195 191.57C189.916 204.746 184.802 217.295 177.243 228.246C182.635 224.596 187.582 220.375 192.084 215.584C204.534 202.237 212.705 185.296 215.484 167.101C217.374 176.113 217.93 185.41 217.096 194.593C257.227 137.155 220.431 77.6063 205.035 61.9206C204.979 61.8066 204.924 61.7495 204.924 61.6354C204.868 61.6925 204.868 61.6925 204.868 61.7494C204.868 61.6923 204.868 61.6923 204.812 61.6354C204.812 62.3199 204.756 63.0043 204.701 63.6888C204.534 65.0007 204.368 66.2555 204.145 67.5104C203.867 68.7653 203.534 70.0201 203.2 71.275C202.811 72.4728 202.367 73.7276 201.866 74.9255C201.366 76.0662 200.81 77.2641 200.199 78.4049C199.587 79.4886 198.92 80.6294 198.198 81.6561C197.475 82.7398 196.697 83.7665 195.919 84.7362C195.085 85.7629 194.196 86.6755 193.307 87.5881C192.751 88.1015 192.25 88.5578 191.695 89.0141C191.25 89.4134 190.861 89.7556 190.416 90.1549C189.416 90.9534 188.415 91.6949 187.304 92.3794C186.248 93.0639 185.136 93.7483 184.024 94.3187C182.857 94.8891 181.69 95.4025 180.523 95.9158C179.355 96.3721 178.132 96.7714 176.91 97.1137C175.687 97.4559 174.408 97.7411 173.186 97.9692C171.907 98.1975 170.629 98.3115 169.406 98.4256C168.517 98.4827 167.627 98.5396 166.738 98.5396C165.46 98.5396 164.181 98.4256 162.958 98.3113C161.68 98.1973 160.402 98.0261 159.179 97.7409C157.9 97.5126 156.678 97.1705 155.455 96.7712H155.399C156.622 96.6573 157.845 96.543 159.068 96.3149C160.346 96.0867 161.569 95.8016 162.792 95.4593C164.014 95.1171 165.237 94.7178 166.404 94.2615C167.627 93.8052 168.794 93.2348 169.906 92.6644C171.073 92.094 172.129 91.4666 173.241 90.7821C174.297 90.0406 175.353 89.2991 176.354 88.5006C177.354 87.702 178.299 86.8465 179.188 85.9338C180.133 85.0782 180.967 84.1086 181.801 83.1389C182.635 82.1122 183.413 81.0855 184.135 80.0588C184.246 79.8877 184.358 79.6595 184.469 79.4884C185.025 78.5758 185.58 77.6632 186.081 76.7505C186.692 75.6097 187.248 74.469 187.748 73.2712C188.248 72.0733 188.693 70.8755 189.082 69.6207C189.471 68.4228 189.749 67.168 190.027 65.9131C190.25 64.6012 190.472 63.3464 190.583 62.0915C190.694 60.7796 190.805 59.4677 190.805 58.2129C190.805 57.3002 190.75 56.3876 190.694 55.475C190.583 54.1631 190.416 52.9082 190.25 51.6534C190.027 50.3415 189.749 49.0866 189.416 47.8318C189.027 46.634 188.638 45.3791 188.193 44.1813C187.748 42.9835 187.193 41.7856 186.637 40.6448C186.025 39.5041 185.414 38.3633 184.747 37.2796C184.024 36.1958 183.302 35.1691 182.524 34.1424C181.69 33.1727 180.856 32.2031 179.967 31.2334C179.522 30.7771 179.022 30.2638 178.522 29.8075C176.02 27.8111 173.408 25.9288 170.796 24.2176C170.407 23.9894 170.073 23.8184 169.684 23.6472C167.85 22.4494 166.127 21.822 164.404 21.2516L164.404 21.2512Z"/></svg>
  </g>

  <g transform="translate(600, 0)">
    <svg xmlns="http://www.w3.org/2000/svg" width="256" height="256" fill="none" viewBox="0 0 256 256"><rect width="256" height="256" fill="#594ed1" rx="60"/><path fill="#f3f3f3" d="M 179.6903 40.3963 C 185.154 41.1613 185.9554 41.9626 185.3362 46.115 C 184.5712 51.2509 184.3891 50.6317 186.7567 51.8701 C 187.9223 52.5258 189.4157 53.4728 190.1078 54.0192 L 191.3098 55.0391 L 193.9324 53.1086 C 196.81 50.9595 197.8663 50.5588 199.214 51.0688 C 200.2703 51.5059 205.4426 57.9895 205.8069 59.4465 C 206.2804 61.0492 205.4426 62.2876 202.5651 64.4731 C 200.3432 66.1486 199.8696 66.695 200.0153 67.3142 C 200.1246 67.7149 200.4889 69.4633 200.8531 71.1753 C 201.1809 72.8872 201.5087 74.3078 201.5452 74.3442 C 201.5452 74.3806 202.7836 74.5992 204.277 74.8177 C 210.0686 75.6555 210.36 76.129 209.4493 82.8676 C 208.8301 87.3114 208.6844 87.7485 207.7374 88.5863 C 206.6082 89.5333 206.6811 89.5333 200.7438 88.8048 C 198.8133 88.5499 198.8133 88.5499 198.3034 89.7883 C 198.012 90.4804 197.1014 91.9738 196.2636 93.1758 L 194.7702 95.2884 L 196.3364 97.3282 C 198.4855 100.1329 198.7769 100.6793 198.8133 101.9906 C 198.8133 103.484 198.4491 103.8847 194.2602 107.0536 C 190.2535 110.0769 189.1243 110.3683 187.4852 108.9477 C 186.7567 108.3649 184.0613 104.9046 183.2964 103.6661 C 183.2599 103.5933 182.495 103.739 181.6573 103.994 C 180.7831 104.2489 178.9982 104.6132 177.687 104.8317 L 175.3193 105.2324 L 174.8822 108.3285 C 174.3359 112.0438 174.0809 112.7359 172.806 113.428 C 171.9318 113.8651 171.2398 113.8651 167.1966 113.3187 C 160.458 112.3717 159.9845 111.8981 160.7494 106.2887 C 161.1501 103.484 161.1501 103.0105 160.6766 102.6827 C 160.3852 102.4641 158.8554 101.4807 157.2891 100.4608 L 154.448 98.6031 L 151.9346 100.5336 C 150.5141 101.5899 148.9842 102.4641 148.5107 102.5005 C 146.2524 102.6827 146.0703 102.5734 143.0834 98.6031 C 140.0966 94.6328 139.5867 93.3215 140.5337 91.5731 C 140.7887 91.0996 145.0139 87.7121 146.2888 87.02 C 146.3252 86.9836 146.1067 86.2551 145.8153 85.4173 C 145.5239 84.5431 145.0868 82.7948 144.8682 81.5199 C 144.4311 78.8973 144.7954 79.1523 140.2059 78.4602 C 137.0005 77.9867 136.9641 77.9867 136.3449 76.4568 C 135.9078 75.4734 135.9442 74.6356 136.527 70.5925 C 137.1462 66.3308 137.2919 65.8208 138.2025 65.0195 C 139.1496 64.2546 139.441 64.1817 141.6264 64.4002 C 142.9377 64.5095 144.6497 64.7281 145.451 64.8373 C 146.8716 65.0559 146.9445 65.0195 147.7822 63.4532 C 148.2557 62.6154 149.2028 61.0856 149.8949 60.1386 L 151.1333 58.3902 L 149.0935 55.5855 C 146.908 52.5622 146.5802 51.1052 147.7458 49.7575 C 148.0736 49.3568 149.8949 47.8634 151.789 46.4428 C 156.6334 42.7639 157.4712 42.8732 160.9316 47.4992 C 161.9515 48.8833 162.8621 50.0489 162.8985 50.0489 C 162.8985 50.0489 163.5177 49.8668 164.2098 49.6482 C 164.9019 49.4297 166.6138 49.0654 168.0344 48.8105 C 170.8755 48.3005 170.7298 48.5191 171.3126 43.711 C 171.604 41.0884 172.6603 39.85 174.518 39.85 C 175.1736 39.85 177.5048 40.1049 179.6903 40.3963 Z M 127.7851 47.1349 C 134.5966 47.7541 134.3416 47.6449 134.3052 49.6482 C 134.2687 52.0523 134.0502 52.3801 131.5369 54.0192 C 130.2984 54.8205 128.6229 56.314 127.8216 57.3338 L 126.3281 59.1915 L 121.1558 59.3372 C 107.278 59.7015 95.9135 64.1453 85.6053 73.1786 C 83.9661 74.5992 79.668 79.6986 78.1018 82.1027 C 75.0421 86.6922 72.5288 92.338 71.0354 97.8018 C 70.4526 99.9144 69.1413 106.1066 69.1413 106.6894 C 69.1413 106.7622 67.9392 107.0172 66.5187 107.2358 C 51.6938 109.6762 41.8955 115.1764 36.5047 124.0276 C 31.8059 131.7861 31.041 142.4949 34.5013 152.0018 C 38.2531 162.2736 45.538 169.3036 55.482 172.3632 L 56.5747 172.6911 L 56.684 178.9925 L 56.7568 185.294 L 55.227 185.0391 C 52.6773 184.6384 46.3029 182.38 43.7168 180.9231 C 33.4814 175.3136 26.0508 166.2439 22.3354 154.8065 C 20.4778 149.015 20.15 146.7202 20.15 139.4717 C 20.1864 134.0444 20.3321 132.4053 20.9513 129.8191 C 24.8488 114.3022 34.8656 103.8847 51.366 98.2024 C 53.6243 97.4011 56.174 96.6362 57.0118 96.5269 L 58.5052 96.2719 L 59.4887 93.103 C 64.5882 76.3111 74.86 63.3075 89.2842 55.2942 C 100.8308 48.8835 114.5265 45.9695 127.785 47.1351 Z M 222.2344 96.5268 C 228.718 103.3746 232.7976 111.7159 234.9831 122.3155 C 236.0758 127.7064 236.1487 140.1637 235.1288 145.2995 C 231.9234 161.4721 223.6914 172.2174 208.8301 179.6481 C 205.5883 181.2508 199.2868 183.7277 198.4126 183.7277 C 198.2305 183.7277 198.0848 180.923 198.0848 177.2076 L 198.0848 170.6876 L 199.3233 170.2505 C 203.7671 168.7935 210.3964 164.6047 213.9296 160.9986 C 218.1184 156.7733 220.5953 152.2567 222.3801 145.6274 C 223.2543 142.3491 223.3272 141.3657 223.3636 134.9185 C 223.4 127.3786 223.1086 125.1202 221.5059 119.6201 C 219.9397 114.4114 216.9164 109.0933 213.1647 105.0502 C 211.1249 102.8647 211.2706 101.6263 213.6746 100.1328 C 215.7873 98.858 218.3734 96.4539 219.0655 95.1062 C 219.3569 94.5599 219.6847 94.1228 219.794 94.1228 C 219.9033 94.1228 220.996 95.2155 222.2344 96.5268 Z M 147.8187 129.3091 C 148.8751 129.6369 150.2228 130.2197 150.842 130.6568 C 152.044 131.5674 153.4646 133.8622 153.7924 135.5013 L 154.0474 136.6305 L 152.1169 136.849 C 148.6565 137.2861 145.9975 137.1768 145.9975 136.594 C 145.9975 135.6106 144.1763 133.8622 142.865 133.6072 C 140.6795 133.2065 139.2589 133.68 138.494 135.137 L 137.8019 136.4119 L 138.7854 137.2497 C 139.2954 137.7232 140.898 138.3788 142.4279 138.7431 C 148.6565 140.2365 150.6963 141.0743 152.554 142.8591 C 155.1765 145.4088 155.7229 148.1407 154.3388 151.8196 C 153.3917 154.3693 151.1698 156.4091 148.2923 157.3561 C 145.1962 158.376 138.239 158.2668 135.3615 157.174 C 132.2289 155.972 130.0799 153.2401 129.3878 149.6705 L 129.1693 148.3957 L 131.5005 148.3957 C 132.8117 148.3957 134.5966 148.2864 135.4708 148.1771 C 137.0734 147.9586 137.0734 147.9586 137.5834 149.3427 C 138.239 151.1639 139.4046 152.2567 141.153 152.7302 C 144.9776 153.7501 148.438 150.144 145.9247 147.74 C 144.9048 146.8294 143.9577 146.4651 140.0967 145.4817 C 132.9939 143.6604 130.0435 140.8193 130.4441 136.3026 C 130.772 132.733 132.9574 130.2561 136.8185 129.2362 C 139.2954 128.5806 145.4511 128.617 147.8187 129.3091 Z M 93.2546 129.7826 C 97.0792 130.9846 99.0462 136.2298 97.2249 140.2001 C 96.3507 142.1306 94.2381 143.9518 92.2348 144.4618 C 90.3407 144.9717 90.195 145.336 91.7612 145.6638 C 92.3805 145.8095 93.4368 146.538 94.1653 147.2665 C 95.8772 149.0877 100.2118 157.4654 99.5926 157.7204 C 99.3376 157.8297 97.1885 157.8661 94.8209 157.7932 L 90.5592 157.684 L 87.5724 152.2567 C 84.5127 146.6473 83.8206 145.9188 81.6351 145.8459 C 80.8338 145.8459 80.7974 145.9188 80.7245 151.7467 L 80.6153 157.684 L 76.5357 157.684 L 72.4197 157.684 L 72.3833 143.6604 C 72.3833 135.9384 72.3833 129.4912 72.3833 129.3455 C 72.4197 128.872 91.6884 129.2727 93.2546 129.7826 Z M 125.9641 132.0045 L 125.9641 134.9185 L 118.497 134.9185 L 111.0299 134.9185 L 111.0299 137.4682 L 111.0299 140.018 L 117.9506 140.018 L 124.8713 140.018 L 124.8713 142.7498 L 124.8713 145.4817 L 117.9506 145.4817 L 111.0299 145.4817 L 111.0299 148.5778 L 111.0299 151.6739 L 118.8613 151.6739 L 126.6926 151.6739 L 126.6197 154.5879 L 126.5469 157.5018 L 114.5996 157.5018 L 102.6522 157.5018 L 102.6522 143.2962 L 102.6522 129.0905 L 114.3082 129.0905 L 125.9641 129.0905 L 125.9641 132.0045 Z M 183.8064 132.4416 L 183.9157 135.647 L 179.144 135.647 L 174.4088 135.647 L 174.4088 146.7201 L 174.4088 157.7932 L 170.3292 157.7568 L 166.2132 157.684 L 166.104 146.6473 L 166.0311 135.647 L 161.478 135.647 L 156.9249 135.647 L 156.9249 132.3688 L 156.9249 129.0905 L 170.3292 129.1634 L 183.6971 129.2727 L 183.8064 132.4416 Z M 107.4603 179.5386 C 109.6458 185.3302 112.1227 192.0687 113.0333 194.4728 C 113.9075 196.8768 116.0201 202.5955 117.7321 207.1486 C 119.4805 211.7017 120.8646 215.5991 120.8646 215.7813 C 120.8646 215.9998 117.9142 216.1455 113.4704 216.1455 L 106.0762 216.1455 L 105.0563 212.3209 L 103.9999 208.4963 L 95.3309 208.4963 L 86.6253 208.4963 L 85.4597 212.3209 L 84.2942 216.1455 L 77.0821 216.1455 C 73.1118 216.1455 69.8699 216.0727 69.8699 215.9634 C 69.8699 215.8541 72.9296 207.7314 76.645 197.8603 C 80.3603 187.9892 84.3306 177.3896 85.4597 174.3299 L 87.536 168.7933 L 95.513 168.8662 L 103.49 168.9755 L 107.4603 179.5386 Z M 154.011 169.194 C 157.0706 169.6675 160.5674 171.3431 162.0244 173.055 C 166.8689 178.5552 166.5046 189.5919 161.3688 194.3635 C 158.0905 197.3868 154.8851 198.2974 146.2889 198.5524 L 139.8053 198.7709 L 139.8053 207.44 L 139.8053 216.1455 L 132.5203 216.1455 L 125.2354 216.1455 L 125.2354 192.4694 L 125.2354 168.7933 L 138.4576 168.7933 C 145.9247 168.7933 152.6632 168.9755 154.011 169.194 Z M 186.429 192.4694 L 186.429 216.1455 L 179.2533 216.1455 L 172.0412 216.1455 L 172.1141 192.7244 C 172.1505 179.8665 172.1869 169.2304 172.2233 169.0483 C 172.2233 168.9026 175.4287 168.7933 179.3262 168.7933 L 186.429 168.7933 L 186.429 192.4694 Z M 168.4716 62.4333 C 164.4649 63.7082 161.1502 66.6222 159.329 70.4468 C 158.2727 72.6322 158.1998 73.1058 158.1998 76.8211 C 158.1998 80.5728 158.2727 80.9735 159.329 83.1954 C 163.5178 91.9374 174.2995 94.6328 181.9487 88.8777 C 187.9224 84.361 189.7436 76.639 186.3926 69.9732 C 183.0779 63.4532 175.4287 60.2114 168.4716 62.4333 Z M 80.7974 137.6503 L 80.7974 140.7465 L 81.8901 140.7829 C 87.281 141.0014 88.9201 140.3822 89.3936 137.9417 C 89.5757 136.9583 89.43 136.594 88.5194 135.647 C 87.4631 134.5907 87.3174 134.5542 84.112 134.5542 L 80.7974 134.5542 L 80.7974 137.6503 Z M 93.9467 184.4196 C 93.2911 186.6415 92.1983 190.2111 91.5063 192.3601 C 90.8506 194.5092 90.1585 196.8404 90.0493 197.4596 L 89.8307 198.6616 L 95.3309 198.6616 C 98.3541 198.6616 100.831 198.5888 100.831 198.5159 C 100.831 198.1517 95.6587 181.3234 95.4037 180.8863 C 95.258 180.595 94.6388 182.0519 93.9467 184.4196 Z M 139.8053 183.946 L 139.8053 189.6283 L 142.8286 189.4097 C 147.6366 189.0091 148.3651 188.8269 149.7493 187.6978 C 152.8089 185.1845 152.0076 180.34 148.2923 178.7737 C 147.5638 178.4459 145.7425 178.2638 143.4478 178.2638 L 139.8053 178.2638 L 139.8053 183.946 Z"/></svg>
  </g>

  <g transform="translate(900, 0)">
    <svg xmlns="http://www.w3.org/2000/svg" width="256" height="256" fill="none" viewBox="0 0 256 256"><rect width="256" height="256" fill="#242938" rx="60"/><path fill="#E535AB" d="M47.8621 176.192L55.2041 180.431L136.997 38.7664L129.655 34.5274L47.8621 176.192Z"/><path fill="#E535AB" d="M209.766 164.875H46.1809V173.353H209.766V164.875Z"/><path fill="#E535AB" d="M49.4177 169.637L131.241 216.879L135.48 209.537L53.6567 162.295L49.4177 169.637Z"/><path fill="#E535AB" d="M120.498 46.5121L202.321 93.7542L206.56 86.4122L124.737 39.1701L120.498 46.5121Z"/><path fill="#E535AB" d="M49.4404 86.3797L53.6794 93.7217L135.503 46.4796L131.264 39.1376L49.4404 86.3797Z"/><path fill="#E535AB" d="M119.02 38.7675L200.812 180.432L208.154 176.193L126.362 34.5285L119.02 38.7675Z"/><path fill="#E535AB" d="M61.145 80.7577H52.667V175.242H61.145V80.7577Z"/><path fill="#E535AB" d="M203.331 80.7577H194.853V175.242H203.331V80.7577Z"/><path fill="#E535AB" d="M126.095 206.877L129.798 213.291L200.962 172.203L197.259 165.79L126.095 206.877Z"/><path fill="#E535AB" d="M214.567 178C209.664 186.529 198.734 189.44 190.205 184.537C181.676 179.634 178.765 168.705 183.668 160.176C188.571 151.646 199.501 148.735 208.03 153.638C216.61 158.592 219.521 169.471 214.567 178Z"/><path fill="#E535AB" d="M72.2789 95.8244C67.3759 104.353 56.4464 107.265 47.9173 102.362C39.3882 97.4587 36.4771 86.5292 41.38 78.0001C46.283 69.4709 57.2125 66.5598 65.7416 71.4628C74.2707 76.4168 77.1819 87.2953 72.2789 95.8244Z"/><path fill="#E535AB" d="M41.431 178C36.5281 169.471 39.4392 158.592 47.9683 153.638C56.4974 148.735 67.3759 151.646 72.3299 160.176C77.2329 168.705 74.3217 179.583 65.7926 184.537C57.2124 189.44 46.334 186.529 41.431 178Z"/><path fill="#E535AB" d="M183.719 95.8244C178.816 87.2953 181.727 76.4168 190.256 71.4628C198.786 66.5598 209.664 69.4709 214.618 78.0001C219.521 86.5292 216.61 97.4076 208.081 102.362C199.552 107.265 188.622 104.353 183.719 95.8244Z"/><path fill="#E535AB" d="M127.999 228C118.142 228 110.175 220.033 110.175 210.176C110.175 200.319 118.142 192.351 127.999 192.351C137.856 192.351 145.823 200.319 145.823 210.176C145.823 219.982 137.856 228 127.999 228Z"/><path fill="#E535AB" d="M127.999 63.6486C118.142 63.6486 110.175 55.6813 110.175 45.8243C110.175 35.9673 118.142 28 127.999 28C137.856 28 145.823 35.9673 145.823 45.8243C145.823 55.6813 137.856 63.6486 127.999 63.6486Z"/></svg>
  </g>
</svg>
