<svg width="104.25" height="48" viewBox="0 0 556 256" fill="none" xmlns="http://www.w3.org/2000/svg" xmlns:xlink="http://www.w3.org/1999/xlink" version="1.1">
  <g transform="translate(0, 0)">
    <svg xmlns="http://www.w3.org/2000/svg" width="256" height="256" fill="none" viewBox="0 0 256 256"><rect width="256" height="256" fill="#242938" rx="60"/><path fill="#00D8FF" d="M128.001 146.951C138.305 146.951 146.657 138.598 146.657 128.295C146.657 117.992 138.305 109.639 128.001 109.639C117.698 109.639 109.345 117.992 109.345 128.295C109.345 138.598 117.698 146.951 128.001 146.951Z"/><path fill-rule="evenodd" stroke="#00D8FF" stroke-width="8.911" d="M128.002 90.3633C153.05 90.3633 176.319 93.9575 193.864 99.9976C215.003 107.275 228 118.306 228 128.295C228 138.704 214.226 150.423 191.525 157.944C174.363 163.63 151.779 166.598 128.002 166.598C103.624 166.598 80.5389 163.812 63.1834 157.881C41.2255 150.376 28 138.506 28 128.295C28 118.387 40.4096 107.441 61.2515 100.175C78.8617 94.0353 102.705 90.3633 127.998 90.3633H128.002Z" clip-rule="evenodd"/><path fill-rule="evenodd" stroke="#00D8FF" stroke-width="8.911" d="M94.9811 109.438C107.495 87.7402 122.232 69.3783 136.23 57.1971C153.094 42.5206 169.144 36.7728 177.796 41.7623C186.813 46.9623 190.084 64.7496 185.259 88.1712C181.614 105.879 172.9 126.925 161.021 147.523C148.842 168.641 134.897 187.247 121.09 199.315C103.619 214.587 86.7284 220.114 77.8833 215.013C69.3003 210.067 66.0181 193.846 70.1356 172.161C73.6145 153.838 82.3451 131.349 94.977 109.438L94.9811 109.438Z" clip-rule="evenodd"/><path fill-rule="evenodd" stroke="#00D8FF" stroke-width="8.911" d="M95.0123 147.578C82.4633 125.904 73.9194 103.962 70.3531 85.7517C66.0602 63.8109 69.0954 47.0355 77.7401 42.0315C86.7485 36.8163 103.792 42.866 121.674 58.7437C135.194 70.7479 149.077 88.8052 160.99 109.383C173.204 130.481 182.358 151.856 185.919 169.844C190.425 192.608 186.778 210.001 177.941 215.116C169.367 220.08 153.676 214.825 136.945 200.427C122.809 188.263 107.685 169.468 95.0123 147.578Z" clip-rule="evenodd"/></svg>
  </g>
  <g transform="translate(300, 0)">
    <svg xmlns="http://www.w3.org/2000/svg" width="256" height="256" fill="none" viewBox="0 0 256 256"><rect width="256" height="256" fill="#000014" rx="60"/><path fill="#fff" d="M 26.4 196.4282 C 26.7641 200.9158 28.3474 205.4288 32.4794 211.4829 C 37.3904 218.6715 45.8237 222.6172 51.9794 216.2838 C 56.1283 212.0078 101.0382 133.5086 122.6804 103.7549 A 6.4435 6.4435 90 0 1 133.2474 103.7549 C 154.8895 133.5086 199.7994 212.0078 203.9483 216.2838 C 210.104 222.6172 218.5374 218.6715 223.4483 211.4829 C 228.2746 204.4127 229.6124 199.4594 229.6124 194.159 C 229.6124 190.552 159.6734 60.3945 152.6288 49.5564 C 145.855 39.1418 143.789 36.8726 132.333 36.5 H 123.5948 C 112.1387 36.8726 110.0727 39.1334 103.2905 49.5564 C 96.3982 60.1658 29.1942 185.2007 26.4 193.7695 Z"/></svg>
  </g>
</svg>
